<svg xmlns="http://www.w3.org/2000/svg" width="150" height="50" viewBox="0,0,150,50"><rect width="100%" height="100%" fill="#cc9966"/><path d="M16 31 C81 46,61 44,139 18" stroke="#96de4e" fill="none"/><path fill="#3a3b3f" d="M89.52 26.84L89.70 27.02L89.72 27.04Q90.39 27.00 91.65 26.86L91.62 26.84L91.62 26.83Q91.49 27.31 91.49 27.89L91.65 28.05L91.63 29.16L91.49 29.01Q90.72 28.99 89.97 29.06L90.01 29.10L90.10 29.19Q89.37 29.24 88.62 29.21L88.61 29.20L88.47 29.05Q85.96 34.60 82.90 38.71L82.93 38.74L83.02 38.83Q80.73 39.36 79.57 39.91L79.57 39.90L79.53 39.87Q83.13 34.70 85.85 29.09L86.01 29.25L83.54 29.12L83.64 29.22Q83.52 27.91 83.42 26.72L83.54 26.85L83.48 26.78Q85.27 27.01 87.11 27.01L86.99 26.89L88.66 23.57L88.82 23.72Q89.52 21.84 90.60 20.41L90.66 20.47L90.76 20.56Q89.27 20.61 87.84 20.61L87.92 20.69L87.93 20.70Q82.38 20.58 79.01 18.61L79.11 18.71L78.54 17.19L78.42 17.07Q78.17 16.38 77.83 15.60L77.89 15.66L77.77 15.54Q81.80 18.04 86.90 18.24L86.82 18.16L86.79 18.13Q91.39 18.34 95.98 16.58L96.05 16.65L95.99 16.59Q95.81 16.96 95.37 17.74L95.33 17.69L95.36 17.73Q92.13 21.98 89.58 26.90ZM96.84 19.00L96.73 18.89L97.67 17.14L97.61 17.08Q96.82 17.59 95.32 18.23L95.43 18.34L95.44 17.91L95.50 17.96Q95.64 17.87 95.74 17.76L95.76 17.78L95.78 17.80Q96.14 17.21 96.78 16.02L96.67 15.91L96.67 15.91Q92.02 18.06 86.89 17.85L86.76 17.72L86.89 17.85Q81.47 17.57 77.22 14.92L77.15 14.84L77.31 15.00Q78.15 16.60 78.90 18.98L78.84 18.92L78.81 18.89Q79.79 19.46 80.50 19.73L80.56 19.79L80.66 19.88Q80.80 20.20 81.21 21.86L81.07 21.72L81.04 21.69Q83.98 22.94 88.91 22.80L88.84 22.73L88.78 22.67Q88.62 23.29 86.85 26.66L86.77 26.57L86.83 26.64Q85.01 26.65 83.25 26.48L83.20 26.44L83.14 26.37Q83.29 27.21 83.29 27.99L83.24 27.93L83.30 29.53L84.74 29.48L84.86 30.85L84.80 30.79Q81.37 37.45 78.89 40.65L78.87 40.63L78.76 40.52Q80.24 39.89 81.70 39.45L81.77 39.52L81.70 39.45Q81.10 40.28 79.88 41.81L79.79 41.72L79.88 41.81Q82.77 40.90 84.95 40.69L84.77 40.51L84.95 40.70Q87.48 37.24 90.26 31.19L90.22 31.14L93.39 31.42L93.41 31.45Q93.35 30.63 93.35 29.82L93.28 29.75L93.24 28.11L93.34 28.21Q93.07 28.18 92.58 28.22L92.46 28.09L92.59 28.23Q92.00 28.17 91.76 28.17L91.85 28.25L91.85 28.26Q91.70 28.00 91.73 27.87L91.74 27.87L91.82 27.71L91.87 27.77Q94.06 23.12 96.81 18.98Z"/><path fill="#2a312a" d="M59.25 38.29L59.23 38.27L59.13 38.17Q57.52 38.25 55.71 38.42L55.72 38.43L55.63 38.34Q56.36 33.80 56.36 29.48L56.19 29.31L56.29 29.41Q56.23 24.97 55.66 20.32L55.76 20.43L55.68 20.35Q51.54 19.94 48.68 18.44L48.77 18.53L48.15 16.99L48.03 16.87Q47.84 16.42 47.30 15.33L47.43 15.46L47.46 15.49Q51.85 17.73 57.22 17.90L57.28 17.96L57.29 17.97Q62.58 18.16 67.44 16.33L67.38 16.27L67.41 16.30Q66.83 17.62 66.25 19.26L66.09 19.09L66.17 19.17Q62.94 20.32 59.13 20.49L59.10 20.46L59.18 20.55Q58.85 24.88 58.85 29.29L58.92 29.36L58.85 29.29Q58.96 33.82 59.24 38.28ZM68.03 15.69L68.05 15.71L67.91 15.57Q62.70 17.61 57.16 17.44L57.19 17.46L57.27 17.54Q51.30 17.36 46.75 14.71L46.78 14.74L46.73 14.69Q47.51 15.94 48.66 18.87L48.57 18.77L48.56 18.76Q49.24 19.14 50.36 19.65L50.21 19.49L50.37 19.65Q50.46 20.15 50.77 21.51L50.80 21.55L50.83 21.58Q52.93 22.39 55.65 22.59L55.65 22.59L55.62 22.56Q55.83 25.73 55.83 29.09L55.94 29.20L56.01 29.27Q55.95 34.01 55.24 38.80L55.21 38.77L55.15 38.71Q56.75 38.71 57.22 38.71L57.16 38.65L57.12 38.61Q57.21 38.97 57.16 39.56L57.07 39.47L57.07 39.47Q57.11 40.16 57.11 40.46L57.06 40.42L57.09 40.44Q58.21 40.45 59.57 40.52L59.49 40.43L59.48 40.42Q60.33 40.49 61.96 40.63L61.86 40.53L61.84 40.51Q60.79 36.16 60.69 31.54L60.72 31.57L60.82 31.67Q60.61 26.84 61.09 22.45L61.13 22.50L61.14 22.50Q64.58 21.94 67.41 20.85L67.37 20.82L67.52 20.96Q68.11 18.80 69.02 16.96L69.01 16.95L68.87 16.81Q67.78 17.52 67.07 17.79L67.02 17.75L67.02 17.74Q67.40 16.60 67.91 15.58Z"/><path fill="#353a3a" d="M20.76 15.46L20.87 15.57L20.87 15.57Q22.96 16.91 24.52 17.29L24.54 17.30L24.68 17.45Q25.77 23.16 25.77 29.04L25.76 29.02L25.77 29.04Q25.71 32.55 25.24 36.12L25.28 36.16L25.38 36.26Q27.24 35.71 29.45 35.78L29.47 35.80L29.46 35.79Q31.70 35.88 33.60 36.53L33.69 36.62L33.55 36.48Q33.79 37.80 34.19 39.20L34.36 39.37L34.20 39.20Q31.31 38.11 27.88 38.35L27.72 38.19L27.85 38.33Q24.45 38.59 21.56 40.29L21.43 40.17L21.45 40.18Q23.34 33.98 23.10 27.73L23.29 27.92L23.19 27.82Q22.94 21.48 20.76 15.46ZM21.08 40.93L20.93 40.79L20.94 40.80Q21.53 40.44 22.76 39.79L22.94 39.97L22.87 39.91Q22.71 40.56 22.24 41.89L22.21 41.86L22.30 41.95Q25.34 40.33 28.77 40.33L28.83 40.39L28.81 40.37Q33.89 40.42 37.56 43.14L37.46 43.04L37.60 43.18Q36.88 41.71 35.96 39.06L36.01 39.11L35.93 39.03Q35.00 38.47 34.21 38.13L34.37 38.29L34.26 38.18Q34.19 37.59 33.92 36.34L33.82 36.24L33.85 36.27Q31.51 35.46 28.83 35.46L28.76 35.40L28.75 35.39Q28.10 35.41 27.38 35.44L27.50 35.56L27.46 35.52Q27.71 31.15 27.65 27.48L27.70 27.54L27.56 27.39Q27.46 23.70 27.16 19.24L27.23 19.32L27.24 19.32Q25.90 19.14 25.18 18.97L25.28 19.07L25.29 19.07Q25.19 18.43 24.99 17.18L24.94 17.13L24.85 17.03Q22.21 16.44 20.21 14.71L20.12 14.62L20.25 14.75Q22.65 21.03 22.89 27.72L22.79 27.62L22.84 27.67Q23.08 34.40 20.93 40.79Z"/><path fill="#443c4d" d="M115.30 29.45L115.19 29.34L115.28 29.42Q114.87 29.22 114.60 29.22L114.75 29.37L114.73 29.36Q113.42 29.24 112.13 29.98L112.28 30.13L112.27 30.12Q110.97 31.00 110.97 32.69L110.99 32.72L110.96 32.69Q111.04 35.82 112.40 37.01L112.40 37.02L112.34 36.96Q113.22 38.04 115.26 38.04L115.29 38.07L115.31 38.09Q115.58 38.16 115.85 38.16L115.85 38.16L115.69 37.99Q117.34 38.11 118.36 36.65L118.43 36.72L118.27 36.57Q119.25 35.26 119.18 33.67L119.20 33.68L119.22 33.71Q119.34 33.35 119.34 32.97L119.33 32.97L119.15 32.79Q119.31 31.35 118.08 30.31L118.12 30.35L117.98 30.21Q116.83 29.24 115.23 29.38ZM119.17 38.38L119.29 38.50L119.30 38.51Q118.33 40.16 115.00 40.26L115.04 40.30L114.96 40.22Q111.93 40.32 110.50 38.89L110.48 38.87L110.58 38.97Q109.29 37.40 108.57 33.12L108.60 33.15L108.60 33.15Q108.22 31.47 108.22 30.35L108.23 30.36L108.31 30.44Q108.22 28.76 108.87 27.80L108.94 27.87L108.92 27.86Q110.01 26.50 112.66 26.50L112.68 26.52L112.68 26.52Q118.39 26.59 120.09 28.90L120.04 28.85L120.04 28.85Q120.26 28.18 120.63 26.76L120.61 26.73L120.70 26.83Q121.82 26.55 123.99 25.83L123.90 25.74L124.04 25.88Q121.77 30.82 121.56 36.46L121.50 36.39L121.64 36.54Q121.31 41.92 123.22 47.12L123.18 47.08L123.34 47.24Q121.66 46.55 120.06 46.31L120.18 46.42L120.12 46.36Q119.36 42.88 119.26 38.47ZM119.80 46.56L119.86 46.61L119.92 46.68Q120.51 46.76 121.77 47.03L121.77 47.03L121.78 47.04Q121.99 47.69 122.50 48.95L122.58 49.04L122.49 48.95Q124.85 49.64 126.89 50.79L126.85 50.76L126.85 50.75Q123.30 44.92 123.30 37.31L123.28 37.29L123.27 37.28Q123.36 31.69 125.57 26.53L125.49 26.44L125.52 26.47Q124.87 26.71 123.64 27.29L123.57 27.22L123.63 27.27Q123.99 26.65 124.57 25.26L124.40 25.09L124.52 25.21Q123.08 25.63 120.22 26.41L120.26 26.46L120.20 26.40Q120.09 26.89 119.82 27.95L119.93 28.06L119.80 27.93Q118.02 26.25 112.55 26.12L112.57 26.13L112.59 26.16Q109.73 26.08 108.51 27.41L108.55 27.45L108.57 27.47Q107.93 28.53 107.96 30.23L107.80 30.07L107.97 30.24Q107.99 32.85 108.88 36.21L108.98 36.31L108.82 36.16Q109.42 38.32 110.24 39.17L110.36 39.30L110.67 39.60L110.64 39.57Q111.67 42.03 116.53 42.23L116.59 42.30L116.55 42.25Q117.36 42.18 118.99 41.90L119.01 41.92L119.09 42.01Q119.32 44.58 119.86 46.62ZM116.86 31.38L116.89 31.41L116.93 31.45Q117.80 31.37 118.55 31.64L118.64 31.73L118.60 31.70Q118.86 32.26 118.97 32.81L118.93 32.77L118.79 32.63Q118.98 33.23 118.91 33.77L118.79 33.65L118.80 33.66Q118.79 35.35 117.87 36.50L118.04 36.67L117.98 36.61Q116.87 37.81 115.20 37.64L115.34 37.78L115.37 37.81Q114.14 37.74 113.29 37.36L113.35 37.43L113.26 37.33Q113.02 36.69 113.02 35.60L112.89 35.47L112.86 35.44Q113.01 35.32 113.01 35.05L112.88 34.91L112.92 34.95Q112.88 33.35 114.07 32.31L114.13 32.37L114.18 32.42Q115.35 31.37 116.92 31.44Z"/></svg>